<?xml version="1.0" standalone="no"?>
<!DOCTYPE svg PUBLIC "-//W3C//DTD SVG 20010904//EN"
 "http://www.w3.org/TR/2001/REC-SVG-20010904/DTD/svg10.dtd">
<svg version="1.0" xmlns="http://www.w3.org/2000/svg"
 width="1155.000000pt" height="1155.000000pt" viewBox="0 0 1155.000000 1155.000000"
 preserveAspectRatio="xMidYMid meet">
<metadata>
Created by potrace 1.14, written by Peter Selinger 2001-2017
</metadata>
<g transform="translate(0.000000,1155.000000) scale(0.100000,-0.100000)"
fill="#000000" stroke="none">
<path d="M9913 7152 c-21 -11 -95 -101 -208 -252 -97 -129 -184 -244 -193
-256 -9 -11 -21 -28 -27 -37 -20 -31 -248 -332 -260 -342 -17 -14 -37 -79 -32
-107 8 -48 31 -75 125 -147 l97 -74 2 -136 c0 -75 3 -143 5 -151 14 -51 25
-69 62 -105 24 -23 61 -46 83 -53 29 -9 158 -12 449 -12 382 0 412 2 451 20
71 32 116 86 129 156 4 21 8 92 8 156 l1 117 35 38 c47 50 70 72 112 108 81
69 84 152 6 235 -13 14 -39 45 -58 70 -19 25 -38 47 -42 48 -5 2 -8 8 -8 13 0
6 -9 20 -21 32 -11 12 -59 72 -107 132 -48 61 -91 115 -97 121 -5 6 -19 23
-30 38 -11 16 -25 33 -30 40 -6 6 -28 34 -50 61 -22 28 -42 52 -46 55 -3 3
-18 23 -35 45 -16 22 -33 45 -39 51 -5 7 -30 37 -53 67 -24 31 -58 62 -75 70
-45 21 -116 20 -154 -1z m177 -452 c50 -63 96 -122 103 -130 7 -8 28 -35 47
-60 19 -24 40 -50 45 -56 6 -7 21 -26 35 -44 14 -18 30 -37 35 -44 6 -6 22
-27 37 -48 15 -20 34 -42 41 -50 8 -7 19 -23 25 -35 12 -21 11 -22 -61 -20
l-72 1 -2 -214 c0 -118 -2 -222 -2 -230 -1 -13 -40 -15 -294 -13 -160 1 -301
2 -312 2 -20 1 -21 6 -20 219 1 119 0 222 -2 227 -2 6 -31 10 -71 9 -36 -1
-70 0 -74 2 -4 3 21 42 56 87 53 69 205 271 281 373 11 15 31 42 45 60 14 17
34 44 44 58 10 15 20 25 22 24 1 -2 43 -55 94 -118z"/>
<path d="M1430 6964 c-30 -7 -95 -36 -145 -65 -49 -29 -108 -62 -130 -75 -22
-12 -107 -61 -190 -109 -82 -48 -175 -101 -205 -118 -30 -16 -58 -34 -61 -39
-3 -5 -8 -9 -10 -7 -2 1 -22 -9 -44 -22 -22 -13 -53 -31 -69 -39 -46 -24 -111
-86 -149 -143 -58 -87 -66 -136 -64 -408 1 -131 0 -239 -3 -239 -3 0 -3 -26 0
-57 3 -32 3 -74 -1 -93 -3 -19 -2 -44 2 -56 4 -11 4 -27 -1 -34 -4 -7 -4 -26
0 -41 5 -16 5 -31 0 -34 -5 -3 -7 -11 -5 -18 2 -7 6 -42 9 -80 4 -65 43 -187
58 -187 5 0 8 -6 8 -13 0 -8 26 -38 58 -68 51 -49 101 -82 252 -167 25 -14 86
-48 135 -77 50 -29 106 -62 125 -73 19 -11 91 -52 160 -92 69 -40 145 -81 168
-91 37 -16 113 -32 147 -30 22 1 90 9 90 11 0 1 11 3 24 6 21 4 114 47 166 77
749 433 741 428 800 552 36 73 45 124 47 251 1 33 -2 66 -6 72 -4 7 -2 12 4
12 7 0 8 6 1 19 -6 10 -8 21 -4 24 8 9 8 171 -1 185 -4 7 -2 12 4 12 7 0 8 6
1 19 -6 10 -8 21 -4 24 8 8 8 175 0 184 -4 3 -2 12 4 19 7 8 7 14 0 18 -6 4
-7 17 -3 29 9 26 8 80 -2 95 -3 6 -3 13 2 16 8 5 8 16 -1 112 -17 174 -199
300 -360 250 -36 -11 -49 -11 -51 -3 -30 119 -90 191 -196 238 -41 18 -154 18
-187 1 -24 -13 -31 -7 -39 30 -3 13 -6 28 -8 33 -19 77 -139 179 -222 189 -17
1 -35 5 -40 8 -5 3 -34 -1 -64 -8z m145 -73 c54 -22 112 -94 126 -156 11 -52
11 -56 -10 -74 -12 -10 -35 -24 -51 -31 -17 -7 -30 -16 -30 -21 0 -5 -5 -9
-10 -9 -6 0 -86 -44 -178 -97 -92 -53 -238 -138 -325 -188 -87 -50 -176 -108
-198 -127 -43 -40 -112 -146 -103 -159 3 -5 2 -9 -3 -9 -14 0 -17 -50 -17
-380 l-1 -325 28 -47 c69 -119 199 -154 326 -89 l59 29 0 -51 c1 -43 5 -73 11
-94 1 -2 1 -6 2 -10 1 -12 51 -76 74 -95 35 -31 116 -56 164 -51 25 2 71 16
101 32 95 50 125 66 130 71 5 6 84 53 135 80 17 9 59 33 93 53 35 21 66 37 68
37 19 0 119 91 149 135 70 102 74 129 75 625 0 242 3 446 6 454 7 17 55 29
114 28 80 0 120 -18 172 -75 31 -33 63 -108 55 -129 -2 -7 0 -21 5 -30 5 -10
5 -18 0 -18 -9 0 -10 -29 0 -45 3 -6 2 -18 -1 -29 -4 -10 -4 -41 -1 -68 4 -27
3 -51 -2 -54 -4 -3 -3 -14 2 -25 6 -10 7 -19 2 -19 -9 0 -10 -29 0 -45 3 -6 2
-18 -1 -29 -4 -10 -4 -41 -1 -68 4 -27 3 -51 -2 -54 -4 -3 -3 -14 2 -25 6 -10
7 -19 2 -19 -9 0 -10 -29 0 -45 3 -6 2 -18 -1 -29 -4 -10 -4 -40 -1 -67 4 -27
4 -51 2 -54 -7 -6 -4 -153 3 -164 3 -5 1 -12 -4 -16 -6 -3 -8 -12 -5 -20 8
-20 -32 -149 -51 -165 -8 -7 -15 -17 -15 -22 0 -25 -180 -165 -180 -141 0 4
-4 3 -8 -2 -7 -11 -129 -85 -138 -85 -3 0 -25 -14 -50 -30 -24 -17 -44 -27
-44 -23 0 4 -4 3 -8 -3 -11 -16 -423 -250 -457 -259 -50 -14 -168 -13 -210 1
-41 15 -86 35 -95 44 -3 3 -18 12 -35 20 -16 8 -32 17 -35 20 -5 5 -41 25
-100 57 -19 10 -37 20 -40 24 -3 3 -32 20 -65 39 -33 18 -76 42 -95 53 -19 10
-66 38 -105 62 -76 46 -154 90 -198 113 -79 40 -164 159 -181 254 -4 21 -7
234 -6 475 0 343 3 449 14 490 15 56 78 158 106 173 10 6 24 16 32 23 12 12
136 87 143 87 2 0 71 41 155 90 84 50 154 90 156 90 2 0 25 13 51 29 120 72
298 175 303 174 3 0 13 5 23 12 22 15 130 13 172 -4z m370 -233 c4 -4 13 -4
21 -1 8 3 14 0 14 -6 0 -6 7 -11 15 -11 39 0 109 -92 121 -157 3 -15 7 -29 9
-33 2 -3 1 -11 -3 -16 -6 -9 -178 -114 -187 -114 -2 0 -37 -20 -79 -45 -41
-24 -77 -41 -80 -37 -2 4 -4 94 -3 199 0 191 0 193 24 208 13 9 28 13 33 10 5
-3 11 -2 14 3 6 10 92 10 101 0z m-238 -275 l-2 -195 -153 -89 c-84 -49 -157
-89 -163 -89 -5 0 -9 -4 -9 -8 0 -5 -18 -17 -41 -27 -72 -33 -131 -107 -146
-185 -3 -14 -5 -132 -6 -263 l0 -238 -26 -18 c-14 -10 -46 -29 -70 -41 -89
-45 -202 -7 -239 81 -15 34 -17 79 -15 337 2 329 2 330 31 393 33 71 94 123
256 215 83 48 183 106 221 129 39 23 95 55 125 71 30 16 59 33 65 37 27 22
161 93 167 90 4 -2 6 -92 5 -200z m416 -465 c-1 -232 -4 -432 -6 -443 -12 -62
-45 -122 -93 -170 -34 -33 -207 -139 -349 -214 -16 -9 -32 -19 -35 -22 -3 -3
-12 -9 -20 -12 -8 -4 -37 -21 -65 -37 -66 -40 -92 -51 -109 -44 -8 3 -17 1
-20 -5 -5 -7 -16 -7 -34 0 -108 39 -140 86 -137 204 1 39 3 72 3 75 1 3 19 14
40 25 20 11 39 22 42 26 3 3 19 12 35 21 51 26 100 53 105 58 3 3 16 11 30 18
14 6 34 18 45 24 11 7 44 28 73 46 58 35 112 88 112 109 0 7 5 13 10 13 6 0 9
3 9 8 -1 4 0 9 1 12 9 23 11 78 12 298 0 138 4 252 8 252 4 0 81 42 171 94 90
52 166 93 169 91 3 -2 4 -194 3 -427z m-417 -35 c-2 -314 9 -295 -261 -448
-55 -31 -118 -67 -140 -80 -22 -12 -42 -22 -46 -20 -3 2 -5 104 -4 227 1 249
6 272 66 321 31 26 366 224 381 226 3 1 5 -101 4 -226z"/>
<path d="M3629 6852 c-12 -2 -14 -99 -12 -685 1 -375 2 -688 2 -694 1 -10 119
-13 556 -13 l554 0 -2 148 -2 147 -400 1 c-220 1 -402 2 -405 3 -3 0 -5 244
-5 542 0 297 -2 543 -5 547 -5 7 -250 10 -281 4z"/>
<path d="M8477 6853 c-4 -3 -152 -7 -330 -7 l-322 -1 0 -143 c0 -84 4 -146 9
-150 6 -3 184 -6 397 -6 372 -1 388 -2 409 -21 65 -59 61 -149 -8 -200 -26
-19 -43 -20 -412 -20 -212 0 -387 -3 -390 -6 -3 -4 -5 -193 -5 -421 l0 -413
460 1 c450 0 483 2 523 23 11 6 22 7 26 4 3 -3 6 -1 6 5 0 7 5 12 12 12 6 0
26 11 45 26 18 14 33 22 33 18 0 -3 18 16 41 42 37 45 106 164 94 164 -2 0 0
12 6 28 16 40 13 142 -5 205 -21 72 -49 120 -103 177 -23 24 -38 47 -34 50 10
7 43 89 48 120 24 156 -13 278 -114 379 -48 47 -125 97 -168 108 -48 12 -108
20 -150 19 -27 0 -53 2 -56 7 -3 4 -8 4 -12 0z m247 -867 c82 -53 74 -185 -13
-217 -22 -9 -191 -12 -528 -9 l-61 0 3 118 c1 64 3 119 4 122 0 3 129 5 286 4
246 -1 288 -3 309 -18z"/>
<path d="M6377 6842 c-14 -3 -17 -17 -17 -80 0 -42 0 -84 0 -92 -1 -8 -1 -44
-1 -80 1 -36 1 -72 0 -80 0 -8 0 -44 0 -80 1 -36 1 -72 0 -80 0 -8 0 -44 0
-80 1 -36 1 -72 0 -80 0 -8 0 -44 0 -80 1 -36 0 -72 0 -80 0 -8 2 -48 5 -87
14 -188 163 -357 386 -440 31 -12 71 -24 90 -28 57 -12 264 -14 278 -3 6 6 12
8 12 5 0 -14 119 29 202 73 139 74 249 208 276 336 14 64 12 954 -2 955 -6 1
-73 2 -148 3 l-138 1 0 -395 c0 -234 -5 -411 -11 -435 -5 -22 -11 -45 -12 -50
-1 -6 -13 -28 -27 -50 -60 -100 -162 -157 -277 -157 -96 0 -177 35 -244 103
-37 38 -77 116 -85 166 -9 60 -11 186 -2 211 4 12 4 22 0 22 -4 0 -7 131 -7
292 l0 292 -131 0 c-72 1 -138 0 -147 -2z"/>
<path d="M5357 6834 c-2 -2 -21 -6 -43 -10 -102 -16 -254 -95 -343 -178 -78
-73 -155 -200 -186 -309 -40 -138 -36 -263 11 -406 40 -120 74 -172 182 -279
131 -128 299 -193 487 -187 107 3 132 7 210 32 50 16 162 74 200 103 70 54
185 191 185 219 0 6 4 11 9 11 5 0 23 44 41 98 60 175 48 356 -32 522 -17 36
-38 71 -45 78 -7 7 -13 17 -13 21 0 14 -115 127 -166 163 -54 38 -155 88 -178
88 -7 0 -16 3 -20 7 -3 4 -12 8 -19 9 -7 1 -28 5 -47 9 -35 7 -227 14 -233 9z
m219 -302 c11 -5 41 -20 67 -33 54 -27 147 -112 147 -134 0 -8 4 -15 8 -15 8
0 42 -76 50 -109 6 -27 6 -144 0 -178 -18 -94 -113 -220 -203 -266 -47 -24
-168 -57 -175 -48 -3 3 -31 7 -63 8 -134 4 -283 117 -328 248 -7 22 -16 45
-20 50 -14 21 -4 189 14 224 9 19 17 39 17 45 0 16 36 62 89 114 46 45 99 77
165 97 46 13 203 12 232 -3z"/>
<path d="M5096 5240 l-140 -5 0 -122 c-1 -123 2 -132 35 -103 13 12 17 30 15
88 -1 41 3 76 9 81 12 8 361 8 370 -1 11 -11 -43 -112 -77 -145 -61 -59 -100
-71 -227 -71 -64 0 -117 -5 -120 -10 -3 -6 -6 -93 -6 -194 l1 -183 25 -3 26
-3 -1 165 c-1 92 1 166 4 167 3 0 43 2 90 4 47 2 98 5 113 7 22 2 32 -3 45
-27 9 -16 21 -33 25 -36 5 -3 8 -9 7 -13 -1 -5 61 -124 129 -246 4 -8 22 -16
40 -18 l32 -3 -37 68 c-20 37 -51 93 -68 123 -17 30 -40 73 -51 95 -11 22 -23
42 -26 45 -21 16 -8 49 37 97 51 53 84 125 91 192 2 18 5 38 6 43 2 11 -159
15 -347 8z"/>
<path d="M6868 5245 c-2 -2 -19 -6 -39 -9 -51 -8 -68 -15 -121 -50 -42 -28
-107 -110 -112 -139 -1 -7 -5 -18 -10 -25 -4 -7 -10 -46 -13 -86 -11 -151 60
-283 183 -342 58 -28 165 -26 226 4 55 27 112 82 139 135 l19 37 -28 0 c-22 0
-35 -10 -58 -42 -66 -93 -193 -125 -291 -74 -36 18 -103 86 -103 103 0 7 -5
13 -12 13 -6 0 -9 3 -6 6 4 3 0 16 -7 30 -12 24 -14 149 -3 191 30 105 129
183 232 185 87 2 151 -38 218 -135 12 -18 24 -24 38 -20 25 7 25 7 -7 62 -31
54 -73 95 -125 122 -34 17 -114 40 -120 34z"/>
<path d="M3690 5209 c-74 -54 -96 -155 -53 -238 42 -81 71 -93 238 -95 145 -3
165 -10 191 -65 24 -51 14 -114 -25 -151 -17 -17 -41 -30 -53 -31 -13 -1 -101
-2 -197 -3 l-174 -1 -4 -27 -3 -27 195 -1 c177 0 198 1 235 20 21 11 45 30 51
43 7 12 17 25 23 29 11 7 18 124 9 157 -8 31 -76 99 -107 107 -16 4 -83 8
-150 8 -72 1 -130 6 -142 13 -51 29 -72 103 -47 165 26 65 49 71 268 72 l190
1 0 25 0 25 -202 2 -202 2 -41 -30z"/>
<path d="M4298 5215 c-4 -17 0 -26 11 -29 9 -2 125 -4 258 -4 228 0 243 1 248
19 4 10 3 23 0 29 -4 6 -100 10 -259 10 l-254 0 -4 -25z"/>
<path d="M6349 5218 c0 -13 -2 -163 -2 -334 l-2 -311 26 -1 25 -1 0 335 0 334
-23 0 c-17 0 -23 -6 -24 -22z"/>
<path d="M7304 5225 c-16 -40 -6 -42 260 -42 l256 0 0 28 0 29 -255 0 c-218 0
-256 -2 -261 -15z"/>
<path d="M8055 5223 c-39 -21 -53 -36 -75 -81 -21 -42 -22 -163 -2 -170 7 -2
12 -10 12 -17 0 -17 61 -67 87 -72 10 -2 74 -5 143 -7 71 -1 134 -7 146 -14
53 -29 75 -112 44 -171 -30 -59 -46 -63 -256 -65 -180 -1 -189 -2 -195 -21 -3
-11 -4 -23 -2 -27 2 -3 89 -7 193 -8 239 -1 265 7 307 100 44 96 2 217 -87
252 -14 5 -84 11 -157 12 -131 2 -133 2 -162 30 -41 39 -51 105 -25 154 33 62
43 65 262 65 194 1 198 1 196 21 -1 12 -3 25 -3 29 -1 4 -90 7 -198 7 -159 -1
-204 -5 -228 -17z"/>
<path d="M5570 5197 c0 -2 43 -91 96 -198 53 -107 100 -204 105 -216 12 -31
22 -29 36 7 10 27 4 43 -73 202 -46 95 -88 180 -93 188 -7 13 -71 28 -71 17z"/>
<path d="M6088 5128 c-20 -40 -82 -167 -139 -281 -88 -178 -101 -212 -93 -234
5 -15 14 -28 19 -29 10 -3 85 144 85 166 0 5 4 10 9 10 5 0 12 14 16 30 4 17
11 30 16 30 5 0 9 4 9 10 0 5 38 88 85 183 47 95 85 176 85 180 0 4 -13 7 -28
7 -26 0 -33 -8 -64 -72z"/>
<path d="M4305 5080 c-7 -12 -8 -197 -1 -209 4 -5 3 -12 -2 -15 -4 -3 -5 -30
-2 -61 3 -31 3 -58 -2 -61 -4 -3 -3 -14 2 -25 6 -10 7 -19 3 -19 -4 0 -6 -27
-5 -60 l4 -60 257 0 257 0 -1 28 0 27 -227 0 c-125 0 -230 4 -234 7 -7 8 -6
260 2 267 2 3 93 5 202 5 l197 1 0 25 0 25 -200 0 -200 0 -5 64 c-4 51 -9 65
-22 67 -10 1 -20 -2 -23 -6z"/>
<path d="M7307 5083 c-3 -5 -5 -122 -5 -260 l0 -253 253 0 c235 0 255 1 264
18 5 10 7 23 3 28 -5 7 -86 10 -227 9 -121 0 -226 1 -233 3 -9 3 -12 38 -11
138 1 116 4 134 18 135 9 0 100 1 204 1 l187 1 -3 26 -4 26 -154 2 c-85 1
-175 2 -202 3 l-48 0 2 56 c2 39 -2 59 -12 65 -17 11 -26 11 -32 2z"/>
</g>
</svg>
